<?xml version="1.0" encoding="UTF-8"?>
<svg width="14px" height="14px" viewBox="0 0 14 14" version="1.1" xmlns="http://www.w3.org/2000/svg" xmlns:xlink="http://www.w3.org/1999/xlink">
    <title>Combined Shape</title>
    <g id="Web" stroke="none" stroke-width="1" fill="none" fill-rule="evenodd">
        <g id="DASHBOARD-LANDING" transform="translate(-959.000000, -506.000000)" fill="#FFFFFF" fill-rule="nonzero">
            <g id="Group-43" transform="translate(390.000000, 199.000000)">
                <g id="Group-40" transform="translate(0.000000, 198.000000)">
                    <g id="Group-18-Copy-2" transform="translate(540.000000, 0.000000)">
                        <g id="Group-21" transform="translate(24.000000, 104.000000)">
                            <path d="M18.3333333,17 L18.3333333,19 L5,19 L5,17 L18.3333333,17 Z M8.33333333,11 L8.33333333,15.6666667 L6.33333333,15.6666667 L6.33333333,11 L8.33333333,11 Z M12.6666667,11 L12.6666667,15.6666667 L10.6666667,15.6666667 L10.6666667,11 L12.6666667,11 Z M17,11 L17,15.6666667 L15,15.6666667 L15,11 L17,11 Z M11.6666667,5 L18.3333333,8.33333333 L18.3333333,9.66666667 L5,9.66666667 L5,8.33333333 L11.6666667,5 Z" id="Combined-Shape"></path>
                        </g>
                    </g>
                </g>
            </g>
        </g>
    </g>
</svg>